# xmcd
#
# Track frame offsets: 
#        150
#        17676
#        31499
#        44744
#        62566
#        78275
#        97666
#        112032
#        127747
#        141827
#        166265
#        197315
#
# Disc length: 2898 seconds
#
# Revision: 0
# Processed by: cddbd v1.5.2PL0 Copyright (c) Steve Scherf et al.
# Submitted via: ExactAudioCopy v0.99pb5
#
DISCID=900b500c
DTITLE=Adrienne Pierce - Small Fires
DYEAR=2004
DGENRE=Pop-Folk
TTITLE0=Arizona
TTITLE1=Falling Asleep
TTITLE2=What You're Wishing For
TTITLE3=Sylvia
TTITLE4=Insectgirl
TTITLE5=Death By Water
TTITLE6=Small
TTITLE7=Psycho Therapist
TTITLE8=Absinthe Minded
TTITLE9=Every Sprinkler
TTITLE10=It's You
TTITLE11=data
EXTD=
EXTT0=
EXTT1=
EXTT2=
EXTT3=
EXTT4=
EXTT5=
EXTT6=
EXTT7=
EXTT8=
EXTT9=
EXTT10=
EXTT11=
PLAYORDER=
